<?xml version="1.0" standalone="no"?>
<!DOCTYPE svg PUBLIC "-//W3C//DTD SVG 20010904//EN"
 "http://www.w3.org/TR/2001/REC-SVG-20010904/DTD/svg10.dtd">
<svg version="1.0" xmlns="http://www.w3.org/2000/svg"
 width="50.000000pt" height="50.000000pt" viewBox="0 0 50.000000 50.000000"
 preserveAspectRatio="xMidYMid meet">

<g transform="translate(0.000000,50.000000) scale(0.100000,-0.100000)"
fill="#000000" stroke="none">
<path d="M201 476 c-28 -16 -50 -52 -51 -83 0 -20 -5 -23 -40 -23 -25 0 -40
-5 -40 -12 0 -7 -9 -87 -20 -178 -11 -91 -20 -168 -20 -172 0 -5 99 -8 220 -8
121 0 220 3 220 8 0 4 -9 81 -20 172 -11 91 -20 171 -20 178 0 7 -15 12 -40
12 -36 0 -40 2 -40 26 0 37 -59 94 -96 94 -16 -1 -40 -7 -53 -14z m104 -31
c14 -13 25 -36 25 -50 0 -25 -1 -25 -80 -25 -79 0 -80 0 -80 25 0 36 42 75 80
75 19 0 40 -9 55 -25z m-157 -122 c-2 -20 2 -28 12 -28 10 0 14 8 12 28 l-3
27 81 0 81 0 -3 -27 c-2 -20 2 -28 12 -28 10 0 14 8 12 28 -2 24 0 27 27 27
34 0 33 3 51 -165 6 -55 14 -115 17 -132 l5 -33 -202 0 -202 0 6 38 c3 20 10
80 16 132 18 164 17 160 51 160 27 0 29 -3 27 -27z"/>
</g>
</svg>
