<?xml version="1.0" standalone="no"?>
<!DOCTYPE svg PUBLIC "-//W3C//DTD SVG 20010904//EN"
 "http://www.w3.org/TR/2001/REC-SVG-20010904/DTD/svg10.dtd">
<svg version="1.0" xmlns="http://www.w3.org/2000/svg"
 width="16.000000pt" height="16.000000pt" viewBox="0 0 16.000000 16.000000"
 preserveAspectRatio="xMidYMid meet">

<g transform="translate(0.000000,16.000000) scale(0.100000,-0.100000)"
fill="#000000" stroke="none">
<path d="M46 134 c-15 -14 -15 -65 0 -111 5 -17 63 -17 68 0 15 46 15 97 0
111 -20 20 -48 20 -68 0z m64 -11 c0 -5 -13 -8 -30 -8 -16 0 -30 3 -30 8 0 4
14 7 30 7 17 0 30 -3 30 -7z m-39 -36 c-1 -4 -1 -18 -1 -32 0 -14 -4 -25 -10
-25 -5 0 -10 16 -10 36 0 21 4 34 11 32 6 -2 10 -7 10 -11z m39 -27 c0 -20 -5
-30 -15 -30 -18 0 -20 31 -3 48 17 17 18 16 18 -18z"/>
</g>
</svg>
