<?xml version="1.0" standalone="no"?>
<!DOCTYPE svg PUBLIC "-//W3C//DTD SVG 20010904//EN"
 "http://www.w3.org/TR/2001/REC-SVG-20010904/DTD/svg10.dtd">
<svg version="1.0" xmlns="http://www.w3.org/2000/svg"
 width="16.000000pt" height="16.000000pt" viewBox="0 0 16.000000 16.000000"
 preserveAspectRatio="xMidYMid meet">

<g transform="translate(0.000000,16.000000) scale(0.100000,-0.100000)"
fill="#000000" stroke="none">
<path d="M48 119 c-12 -12 -18 -35 -18 -64 l0 -45 50 0 50 0 0 45 c0 32 -6 51
-20 65 -24 24 -40 24 -62 -1z m42 1 c0 -5 -4 -10 -10 -10 -5 0 -10 5 -10 10 0
6 5 10 10 10 6 0 10 -4 10 -10z m30 -62 c0 -38 0 -38 -40 -38 -40 0 -40 0 -40
38 0 37 0 37 40 37 40 0 40 0 40 -37z"/>
</g>
</svg>
