<?xml version="1.0" standalone="no"?>
<!DOCTYPE svg PUBLIC "-//W3C//DTD SVG 20010904//EN"
 "http://www.w3.org/TR/2001/REC-SVG-20010904/DTD/svg10.dtd">
<svg version="1.0" xmlns="http://www.w3.org/2000/svg"
 width="16.000000pt" height="16.000000pt" viewBox="0 0 16.000000 16.000000"
 preserveAspectRatio="xMidYMid meet">

<g transform="translate(0.000000,16.000000) scale(0.100000,-0.100000)"
fill="#000000" stroke="none">
<path d="M80 140 c0 -5 -11 -10 -25 -10 -22 0 -25 -4 -25 -37 0 -70 8 -83 50
-83 42 0 50 13 50 83 0 31 -3 37 -22 38 -22 1 -22 1 2 9 l25 8 -27 1 c-16 1
-28 -3 -28 -9z m-10 -40 c0 -5 -7 -10 -15 -10 -8 0 -15 5 -15 10 0 6 7 10 15
10 8 0 15 -4 15 -10z m50 0 c0 -5 -6 -10 -14 -10 -8 0 -18 5 -21 10 -3 6 3 10
14 10 12 0 21 -4 21 -10z m-20 -41 c0 -5 -4 -8 -9 -5 -5 4 -11 0 -14 -6 -2 -7
-8 -9 -13 -5 -5 4 -2 12 6 17 20 13 30 12 30 -1z"/>
</g>
</svg>
