<?xml version="1.0" standalone="no"?>
<!DOCTYPE svg PUBLIC "-//W3C//DTD SVG 20010904//EN"
 "http://www.w3.org/TR/2001/REC-SVG-20010904/DTD/svg10.dtd">
<svg version="1.0" xmlns="http://www.w3.org/2000/svg"
 width="20.000000pt" height="20.000000pt" viewBox="0 0 20.000000 20.000000"
 preserveAspectRatio="xMidYMid meet">

<g transform="translate(0.000000,20.000000) scale(0.100000,-0.100000)"
fill="#000000" stroke="none">
<path d="M51 105 c-13 -36 -21 -68 -18 -72 4 -3 36 5 72 18 75 26 82 43 36 90
-47 46 -64 39 -90 -36z m80 26 c16 -16 29 -35 29 -42 0 -8 -7 -4 -15 8 -8 12
-27 31 -41 42 -15 12 -21 21 -15 21 7 0 26 -13 42 -29z m-15 -27 c-2 -6 0 -16
6 -22 8 -8 2 -13 -18 -17 -16 -4 -35 -8 -41 -11 -18 -5 -16 21 2 40 9 8 15 19
14 23 -3 19 2 22 21 11 11 -7 18 -18 16 -24z"/>
</g>
</svg>
