<?xml version="1.0" standalone="no"?>
<!DOCTYPE svg PUBLIC "-//W3C//DTD SVG 20010904//EN"
 "http://www.w3.org/TR/2001/REC-SVG-20010904/DTD/svg10.dtd">
<svg version="1.0" xmlns="http://www.w3.org/2000/svg"
 width="16.000000pt" height="16.000000pt" viewBox="0 0 16.000000 16.000000"
 preserveAspectRatio="xMidYMid meet">

<g transform="translate(0.000000,16.000000) scale(0.100000,-0.100000)"
fill="#000000" stroke="none">
<path d="M30 125 c-16 -19 -5 -49 31 -80 33 -27 58 -32 76 -14 16 16 6 36 -36
75 -40 37 -53 41 -71 19z m85 -51 c11 -8 13 -12 5 -8 -24 11 -50 36 -50 47 0
6 6 3 13 -6 6 -9 21 -24 32 -33z m5 -36 c0 -17 -28 -6 -53 20 -41 43 -32 57
13 20 22 -18 40 -36 40 -40z"/>
</g>
</svg>
