<?xml version="1.0" encoding="utf-8"?>
<svg viewBox="3.295 -8.237 500 500" xmlns="http://www.w3.org/2000/svg" xmlns:bx="https://boxy-svg.com">
  <path style="stroke: rgb(0, 0, 0); fill: rgb(5, 14, 40);" d="M 382.4828333333333 10.639166666666668 C 358.0456666666667 37.75333333333334 309.1713333333334 91.98166666666667 283.224 123.76366666666667 C 257.2766666666667 155.54566666666668 254.25633333333334 164.88133333333334 253.98166666666665 174.4915 C 253.707 184.1016666666667 256.178 193.98633333333336 262.3558333333333 202.29216666666665 C 268.53366666666665 210.59799999999998 278.41833333333335 217.32500000000002 289.46999999999997 221.23766666666666 C 300.5216666666667 225.15033333333335 312.74033333333335 226.24866666666665 355.2995 228.78833333333333 C 397.8586666666667 231.328 470.7583333333334 235.309 509.47333333333336 233.7986666666667 C 548.1883333333334 232.28833333333333 552.7186666666666 225.28666666666666 549.8356666666667 185.19899999999998 C 546.9526666666667 145.11133333333333 536.6563333333334 71.93766666666666 529.1055 31.918666666666667 C 521.5546666666667 -8.100333333333333 516.7493333333333 -14.964666666666666 499.93149999999997 -18.465500000000002 C 483.11366666666663 -21.966333333333335 454.2833333333333 -22.10366666666667 436.77933333333334 -21.211333333333332 C 419.2753333333333 -20.319 413.0976666666667 -18.397000000000002 410.0088333333333 -17.436000000000003 C 406.92 -16.475 406.92 -16.475 406.92 -16.474999999999998 C 406.92 -16.475 406.92 -16.475 382.4828333333333 10.639166666666668" bx:d="M 406.92 -16.475 U 260.297 146.21 U 251.236 174.217 U 258.649 203.871 U 288.303 224.052 U 324.959 227.347 U 543.658 239.29 U 557.249 218.285 U 526.36 -1.236 U 511.944 -21.829 U 425.453 -22.241 U 406.92 -16.475 U 406.92 -16.475 Z 1@b13e6cfc"/>
</svg>