<?xml version="1.0" encoding="utf-8"?>
<svg viewBox="0 0 500 500" xmlns="http://www.w3.org/2000/svg" xmlns:bx="https://boxy-svg.com">
  <path style="stroke: rgb(0, 0, 0); fill: rgb(5, 14, 40);" d="M 288.43716666666666 53.54833333333334 C 231.64666666666668 99.23066666666666 129.85633333333334 183.37133333333335 76.3555 233.21266666666665 C 22.854666666666663 283.05400000000003 17.643333333333334 298.596 17.16933333333333 314.59516666666667 C 16.695333333333334 330.5943333333333 20.95866666666667 347.0506666666667 31.617500000000003 360.8785 C 42.27633333333333 374.70633333333336 59.33066666666667 385.9056666666667 78.39816666666667 392.41966666666667 C 97.46566666666668 398.9336666666666 118.54633333333334 400.76233333333334 211.40650000000002 407.6995 C 304.2666666666667 414.6366666666667 468.90633333333335 426.68233333333336 532.6455 428.8635 C 596.3846666666667 431.04466666666667 559.2233333333334 423.36133333333333 541.8781666666666 354.481 C 524.533 285.60066666666665 527.004 155.52333333333334 523.8000000000001 84.20283333333333 C 520.596 12.882333333333335 511.71700000000004 0.3186666666666677 495.07200000000006 -5.896999999999999 C 478.42699999999996 -12.112666666666668 454.016 -11.980333333333334 424.4725 -10.1335 C 394.92900000000003 -8.286666666666667 360.253 -4.725333333333333 350.12033333333335 -3.847666666666667 C 339.98766666666666 -2.97 354.39833333333337 -4.776 355.7083333333333 -2.067 C 357.0183333333334 0.642 345.22766666666666 7.866 288.43716666666666 53.54833333333334" bx:d="M 333.437 15.09 U 28.066 267.512 U 12.432 314.138 U 25.222 363.507 U 76.385 397.105 U 139.627 402.591 U 633.546 438.728 U 522.062 415.678 U 529.475 25.446 U 502.838 -12.245 U 429.605 -11.848 U 325.577 -1.164 U 368.809 -6.582 Z 1@6bf348a8"/>
</svg>