<?xml version="1.0" encoding="utf-8"?>
<svg viewBox="0 0 500 500" xmlns="http://www.w3.org/2000/svg" xmlns:bx="https://boxy-svg.com">
  <path style="stroke: rgb(0, 0, 0); fill: rgb(5, 14, 40);" d="M 329.30066666666664 49.935833333333335 C 284.9456666666667 93.07099999999998 205.44433333333333 172.51999999999998 163.65866666666668 219.5823333333333 C 121.873 266.64466666666664 117.803 281.32033333333334 117.43283333333333 296.4275 C 117.06266666666666 311.5346666666667 120.39233333333334 327.0733333333333 128.71716666666666 340.13016666666664 C 137.042 353.18700000000007 150.362 363.762 165.25433333333334 369.9128333333333 C 180.14666666666665 376.0636666666667 196.6113333333333 377.79033333333336 269.13783333333333 384.34066666666666 C 341.66433333333333 390.891 470.2526666666667 402.26500000000004 520.0346666666667 404.3245 C 569.8166666666667 406.384 540.7923333333333 399.1290000000001 527.2451666666667 334.0891666666667 C 513.698 269.0493333333333 515.628 146.22466666666668 513.1256666666667 78.88083333333334 C 510.6233333333333 11.536999999999999 503.6886666666667 -0.3260000000000005 490.68850000000003 -6.195 C 477.68833333333333 -12.064 458.62266666666665 -11.939 435.54833333333335 -10.195166666666667 C 412.474 -8.451333333333332 385.391 -5.088666666666667 377.47700000000003 -4.26 C 369.56299999999993 -3.4313333333333333 380.818 -5.136666666666667 381.84116666666665 -2.5786666666666664 C 382.86433333333326 -0.020666666666666462 373.6556666666667 6.800666666666667 329.30066666666664 49.935833333333335" bx:d="M 364.447 13.622 U 125.943 251.969 U 113.733 295.996 U 123.722 342.612 U 163.682 374.337 U 213.076 379.517 U 598.841 413.639 U 511.768 391.874 U 517.558 23.4 U 496.754 -12.189 U 439.557 -11.814 U 358.308 -1.726 U 392.073 -6.842 Z 1@c3420a6c"/>
</svg>