<?xml version="1.0" encoding="utf-8"?>
<svg viewBox="0 0 500 500" xmlns="http://www.w3.org/2000/svg" xmlns:bx="https://boxy-svg.com">
  <g style="transform-origin: 377.092px 303.941px;" transform="matrix(2.006089, 0, 0, 2.012741, -125.259739, -41.578378)">
    <g transform="matrix(1, 0, 0, -1.04003, -25.129878, 636.364338)" style="">
      <path d="M 401.719 321.487 L 441.29 378.126 L 361.509 378.126 L 401.719 321.487 Z" style="stroke: rgb(0, 0, 0); fill: rgb(254, 226, 105); stroke-opacity: 0;" bx:shape="triangle 361.509 321.487 79.781 56.639 0.504 0 1@2f579927"/>
      <path style="stroke: rgb(0, 0, 0); fill: rgb(254, 226, 105); stroke-opacity: 0;" d="M 361.784 377.622 L 362.93350000000004 378.46000000000004 C 364.083 379.298 366.382 380.974 369.3963333333333 382.6061666666667 C 372.41066666666666 384.2383333333333 376.14033333333333 385.82666666666665 380.53683333333333 387.2001666666667 C 384.93333333333334 388.57366666666667 389.99666666666667 389.7323333333334 394.69083333333333 390.2538333333334 C 399.385 390.7753333333333 403.71000000000004 390.6596666666667 407.7936666666667 390.27216666666664 C 411.87733333333335 389.88466666666665 415.7196666666667 389.2253333333333 419.5898333333333 388.20233333333334 C 423.46000000000004 387.1793333333333 427.358 385.79266666666666 430.8811666666666 384.1756666666667 C 434.40433333333334 382.5586666666666 437.55266666666665 380.71133333333336 439.251 379.55916666666667 C 440.9493333333333 378.407 441.1976666666667 377.95 441.32183333333336 377.72150000000005 L 441.446 377.493" bx:d="M 361.784 377.622 U 368.681 382.65 U 379.87 387.415 U 395.06 390.891 U 408.035 390.544 U 419.562 388.566 U 431.256 384.406 U 440.701 378.864 U 441.446 377.493 1@ddc851c2"/>
      <path style="stroke: rgb(0, 0, 0); fill: rgb(254, 132, 27); stroke-opacity: 0;" d="M 360.7558333333333 379.06183333333337 C 359.78933333333333 380.43266666666665 357.8906666666667 383.11833333333334 356.9328333333333 384.5296666666666 C 355.97499999999997 385.941 355.958 386.078 356.4113333333333 386.4371666666666 C 356.86466666666666 386.7963333333333 357.78833333333336 387.3776666666667 359.8618333333333 388.5536666666667 C 361.93533333333335 389.7296666666667 365.1586666666667 391.50033333333334 368.3453333333334 392.99333333333334 C 371.532 394.48633333333333 374.682 395.70166666666665 378.1546666666666 396.74333333333334 C 381.62733333333335 397.785 385.42266666666666 398.653 389.00700000000006 399.2483333333333 C 392.59133333333335 399.84366666666665 395.9646666666667 400.16633333333334 399.63983333333334 400.2471666666666 C 403.31500000000005 400.328 407.292 400.167 411.23566666666665 399.70433333333335 C 415.1793333333333 399.2416666666666 419.0896666666667 398.4773333333333 423.147 397.31600000000003 C 427.20433333333335 396.1546666666666 431.4086666666667 394.59633333333335 435.46600000000007 392.68533333333335 C 439.5233333333333 390.77433333333335 443.4336666666666 388.51066666666674 445.33 387.1876666666667 C 447.22633333333334 385.86466666666666 447.1086666666667 385.4823333333334 446.07199999999995 383.9521666666667 C 445.0353333333333 382.422 443.0796666666667 379.74399999999997 442.1948333333333 378.48766666666666 C 441.31 377.23133333333334 441.49600000000004 377.3966666666667 440.3623333333333 378.2801666666667 C 439.2286666666667 379.16366666666664 436.7753333333333 380.76533333333333 433.76450000000006 382.2275 C 430.7536666666667 383.68966666666665 427.18533333333335 385.01233333333334 423.3766666666667 386.17366666666663 C 419.56800000000004 387.335 415.519 388.335 410.4976666666667 388.8081666666667 C 405.47633333333334 389.28133333333335 399.4826666666666 389.22766666666666 394.1846666666667 388.74600000000004 C 388.8866666666666 388.2643333333333 384.28433333333334 387.3546666666666 379.48350000000005 385.7488333333333 C 374.68266666666665 384.14300000000003 369.6833333333334 381.84099999999995 366.6921666666667 380.36650000000003 C 363.701 378.892 362.718 378.24500000000006 362.23583333333335 377.91833333333335 C 361.7536666666667 377.5916666666667 361.77233333333334 377.5853333333334 361.7645 377.61016666666666 C 361.75666666666666 377.635 361.7223333333333 377.69100000000003 360.7558333333333 379.06183333333337" bx:d="M 361.688 377.747 U 355.992 385.804 U 355.941 386.215 U 358.712 387.959 U 368.382 393.271 U 377.832 396.917 U 389.218 399.521 U 399.338 400.489 U 411.269 400.006 U 423 397.713 U 435.613 393.038 U 447.344 386.247 U 446.991 385.1 U 441.124 377.066 U 441.682 377.562 U 434.322 382.367 U 423.617 386.335 U 411.47 389.335 U 393.489 389.174 U 379.682 386.445 U 364.684 379.539 U 361.735 377.598 U 361.791 377.579 Z 1@91d1a7b2"/>
    </g>
    <ellipse style="stroke: rgb(0, 0, 0); fill: rgb(247, 63, 51); stroke-opacity: 0;" cx="376.644" cy="249.133" rx="6" ry="6"/>
    <ellipse style="stroke: rgb(0, 0, 0); fill: rgb(170, 76, 56); stroke-opacity: 0;" cx="-375.475" cy="-273.151" rx="2" ry="2" transform="matrix(-1, 0, 0, -1, 0, 0)"/>
    <animateTransform type="translate" additive="sum" attributeName="transform" values="0 0;0 -25" begin="0.85s" dur="0.46s" fill="freeze" keyTimes="0; 1"/>
    <animate attributeName="opacity" values="1;0" begin="1.04s" dur="0.54s" fill="freeze" keyTimes="0; 1"/>
  </g>
  <g style="transform-origin: 377.092px 303.941px;" transform="matrix(2.006089, 0, 0, 2.012741, -125.259739, -41.578378)">
    <g transform="matrix(0.594628, -0.84922, 0.806186, 0.564501, 288.068856, 61.714167)" style="transform-origin: 125.73px 225.007px;">
      <path d="M 325.079 341.133 L 354.549 401.346 L 290.622 401.346 L 325.079 341.133 Z" style="stroke: rgb(0, 0, 0); fill: rgb(254, 226, 105); stroke-opacity: 0;" transform="matrix(0.43837, -0.898795, 0.898793, 0.438373, -355.497233, 347.85551)" bx:shape="triangle 290.622 341.133 63.927 60.213 0.539 0 1@e89c62f3"/>
      <path style="stroke: rgb(0, 0, 0); fill: rgb(254, 226, 105); stroke-opacity: 0;" d="M 132.338 262.688 L 132.5715 262.6421666666667 C 132.80499999999998 262.59633333333335 133.27200000000002 262.50466666666665 135.25283333333334 260.9576666666667 C 137.23366666666666 259.41066666666666 140.72833333333335 256.40833333333336 143.64466666666667 253.33266666666668 C 146.561 250.25699999999998 148.899 247.10800000000003 150.76833333333335 244.3503333333333 C 152.63766666666666 241.59266666666667 154.03833333333333 239.22633333333337 155.78583333333333 235.49183333333335 C 157.53333333333333 231.75733333333335 159.62766666666667 226.65466666666666 160.859 221.67233333333334 C 162.09033333333335 216.68999999999997 162.45866666666666 211.828 162.67983333333333 209.07299999999998 C 162.90099999999998 206.31799999999998 162.975 205.67 162.56933333333333 205.3665 C 162.16366666666667 205.063 161.27833333333334 205.104 160.83566666666667 205.1245 L 160.393 205.145" bx:d="M 132.338 262.688 U 133.739 262.413 U 144.223 253.406 U 151.237 243.959 U 155.439 236.86 U 161.722 221.552 U 162.827 206.966 U 163.049 205.022 U 160.393 205.145 1@f05dcfe2"/>
      <path style="stroke: rgb(0, 0, 0); fill: rgb(254, 132, 27); stroke-opacity: 0; transform-box: fill-box; transform-origin: 50% 50%;" d="M 134.60366666666667 265.367 C 135.43433333333334 266.556 136.87666666666667 268.542 137.688 269.682 C 138.49933333333334 270.82200000000006 138.67966666666666 271.11600000000004 139.30366666666666 270.85066666666665 C 139.92766666666668 270.5853333333334 140.99533333333332 269.7606666666666 142.35416666666666 268.6573333333333 C 143.713 267.55400000000003 145.363 266.172 147.169 264.4766666666667 C 148.975 262.78133333333335 150.937 260.7726666666667 152.70016666666666 258.7663333333333 C 154.46333333333334 256.76 156.02766666666668 254.756 157.62383333333335 252.5135 C 159.22 250.271 160.84799999999998 247.79 162.51116666666667 244.67666666666665 C 164.17433333333335 241.56333333333336 165.87266666666667 237.81766666666667 167.3033333333333 234.025 C 168.734 230.23233333333334 169.89700000000002 226.39266666666666 170.69366666666667 222.32216666666667 C 171.49033333333333 218.25166666666667 171.92066666666665 213.95033333333333 172.16 210.9373333333333 C 172.39933333333332 207.92433333333335 172.4476666666667 206.19966666666664 172.25699999999998 205.37333333333333 C 172.06633333333335 204.547 171.63666666666666 204.619 169.8225 204.69966666666667 C 168.00833333333333 204.78033333333335 164.80966666666666 204.8696666666667 163.17283333333333 204.8936666666667 C 161.53599999999997 204.9176666666667 161.46099999999998 204.87633333333335 161.5575 204.9813333333333 C 161.654 205.08633333333333 161.922 205.33766666666668 161.95383333333334 207.37183333333334 C 161.98566666666667 209.40599999999998 161.78133333333332 213.22299999999998 161.161 217.16983333333334 C 160.54066666666665 221.11666666666667 159.50433333333334 225.19333333333336 157.7815 229.8096666666667 C 156.05866666666665 234.42600000000002 153.64933333333332 239.582 150.95716666666667 244.03883333333332 C 148.26500000000001 248.4956666666667 145.29 252.25333333333333 142.47650000000002 255.1746666666667 C 139.663 258.096 137.011 260.18100000000004 135.34766666666667 261.2286666666667 C 133.68433333333334 262.27633333333335 133.00966666666667 262.2866666666667 132.83900000000003 262.4746666666667 C 132.66833333333332 262.66266666666667 133.00166666666667 263.02833333333336 133.27783333333335 263.4071666666667 C 133.554 263.786 133.773 264.178 134.60366666666667 265.367" transform="matrix(0.999848, 0.017452, -0.017452, 0.999848, 0, 0)" bx:d="M 133.992 264.57 U 138.319 270.528 U 138.86 271.41 U 142.063 268.936 U 147.013 264.79 U 152.899 258.764 U 157.592 252.752 U 162.476 245.309 U 167.571 234.072 U 171.06 222.553 U 172.351 209.649 U 172.496 204.475 U 171.207 204.691 U 161.611 204.959 U 161.386 204.835 U 162.19 205.589 U 161.577 217.04 U 158.468 229.27 U 151.24 244.738 U 142.315 256.011 U 134.359 262.266 U 132.335 262.297 U 133.335 263.394 Z 1@e8c24312"/>
    </g>
    <ellipse style="stroke: rgb(0, 0, 0); fill: rgb(247, 63, 51); stroke-opacity: 0;" cx="426.297" cy="277.527" rx="6" ry="6"/>
    <ellipse style="stroke: rgb(0, 0, 0); fill: rgb(170, 76, 56); stroke-opacity: 0;" cx="-423.335" cy="-262.02" rx="2" ry="2" transform="matrix(-1, 0, 0, -1, 0, 0)"/>
    <animateTransform type="translate" additive="sum" attributeName="transform" values="0 0;16 -11" begin="1.58s" dur="0.45s" fill="freeze" keyTimes="0; 1"/>
    <animate attributeName="opacity" values="1;0" begin="1.83s" dur="0.5s" fill="freeze" keyTimes="0; 1"/>
  </g>
  <g transform="matrix(2.006089, 0, 0, 2.012741, -125.667721, -41.986371)" style="transform-origin: 377.5px 304.349px;">
    <g transform="matrix(-0.587175, -0.838575, -0.793992, 0.555962, 214.145941, 61.984373)" style="transform-origin: 125.73px 225.007px;">
      <path d="M 325.079 341.133 L 354.549 401.346 L 290.622 401.346 L 325.079 341.133 Z" style="stroke: rgb(0, 0, 0); fill: rgb(254, 226, 105); stroke-opacity: 0;" transform="matrix(0.43837, -0.898795, 0.898793, 0.438373, -355.497233, 347.85551)" bx:shape="triangle 290.622 341.133 63.927 60.213 0.539 0 1@e89c62f3"/>
      <path style="stroke: rgb(0, 0, 0); fill: rgb(254, 226, 105); stroke-opacity: 0;" d="M 132.338 262.688 L 132.5715 262.6421666666667 C 132.80499999999998 262.59633333333335 133.27200000000002 262.50466666666665 135.25283333333334 260.9576666666667 C 137.23366666666666 259.41066666666666 140.72833333333335 256.40833333333336 143.64466666666667 253.33266666666668 C 146.561 250.25699999999998 148.899 247.10800000000003 150.76833333333335 244.3503333333333 C 152.63766666666666 241.59266666666667 154.03833333333333 239.22633333333337 155.78583333333333 235.49183333333335 C 157.53333333333333 231.75733333333335 159.62766666666667 226.65466666666666 160.859 221.67233333333334 C 162.09033333333335 216.68999999999997 162.45866666666666 211.828 162.67983333333333 209.07299999999998 C 162.90099999999998 206.31799999999998 162.975 205.67 162.56933333333333 205.3665 C 162.16366666666667 205.063 161.27833333333334 205.104 160.83566666666667 205.1245 L 160.393 205.145" bx:d="M 132.338 262.688 U 133.739 262.413 U 144.223 253.406 U 151.237 243.959 U 155.439 236.86 U 161.722 221.552 U 162.827 206.966 U 163.049 205.022 U 160.393 205.145 1@f05dcfe2"/>
      <path style="stroke: rgb(0, 0, 0); fill: rgb(254, 132, 27); stroke-opacity: 0; transform-box: fill-box; transform-origin: 50% 50%;" d="M 134.60366666666667 265.367 C 135.43433333333334 266.556 136.87666666666667 268.542 137.688 269.682 C 138.49933333333334 270.82200000000006 138.67966666666666 271.11600000000004 139.30366666666666 270.85066666666665 C 139.92766666666668 270.5853333333334 140.99533333333332 269.7606666666666 142.35416666666666 268.6573333333333 C 143.713 267.55400000000003 145.363 266.172 147.169 264.4766666666667 C 148.975 262.78133333333335 150.937 260.7726666666667 152.70016666666666 258.7663333333333 C 154.46333333333334 256.76 156.02766666666668 254.756 157.62383333333335 252.5135 C 159.22 250.271 160.84799999999998 247.79 162.51116666666667 244.67666666666665 C 164.17433333333335 241.56333333333336 165.87266666666667 237.81766666666667 167.3033333333333 234.025 C 168.734 230.23233333333334 169.89700000000002 226.39266666666666 170.69366666666667 222.32216666666667 C 171.49033333333333 218.25166666666667 171.92066666666665 213.95033333333333 172.16 210.9373333333333 C 172.39933333333332 207.92433333333335 172.4476666666667 206.19966666666664 172.25699999999998 205.37333333333333 C 172.06633333333335 204.547 171.63666666666666 204.619 169.8225 204.69966666666667 C 168.00833333333333 204.78033333333335 164.80966666666666 204.8696666666667 163.17283333333333 204.8936666666667 C 161.53599999999997 204.9176666666667 161.46099999999998 204.87633333333335 161.5575 204.9813333333333 C 161.654 205.08633333333333 161.922 205.33766666666668 161.95383333333334 207.37183333333334 C 161.98566666666667 209.40599999999998 161.78133333333332 213.22299999999998 161.161 217.16983333333334 C 160.54066666666665 221.11666666666667 159.50433333333334 225.19333333333336 157.7815 229.8096666666667 C 156.05866666666665 234.42600000000002 153.64933333333332 239.582 150.95716666666667 244.03883333333332 C 148.26500000000001 248.4956666666667 145.29 252.25333333333333 142.47650000000002 255.1746666666667 C 139.663 258.096 137.011 260.18100000000004 135.34766666666667 261.2286666666667 C 133.68433333333334 262.27633333333335 133.00966666666667 262.2866666666667 132.83900000000003 262.4746666666667 C 132.66833333333332 262.66266666666667 133.00166666666667 263.02833333333336 133.27783333333335 263.4071666666667 C 133.554 263.786 133.773 264.178 134.60366666666667 265.367" transform="matrix(0.999848, 0.017452, -0.017452, 0.999848, 0, 0)" bx:d="M 133.992 264.57 U 138.319 270.528 U 138.86 271.41 U 142.063 268.936 U 147.013 264.79 U 152.899 258.764 U 157.592 252.752 U 162.476 245.309 U 167.571 234.072 U 171.06 222.553 U 172.351 209.649 U 172.496 204.475 U 171.207 204.691 U 161.611 204.959 U 161.386 204.835 U 162.19 205.589 U 161.577 217.04 U 158.468 229.27 U 151.24 244.738 U 142.315 256.011 U 134.359 262.266 U 132.335 262.297 U 133.335 263.394 Z 1@e8c24312"/>
    </g>
    <ellipse style="stroke: rgb(0, 0, 0); fill: rgb(247, 63, 51); stroke-opacity: 0;" cx="324.721" cy="277.248" rx="6" ry="6"/>
    <ellipse style="stroke: rgb(0, 0, 0); fill: rgb(170, 76, 56); stroke-opacity: 0;" cx="-337.855" cy="-289.401" rx="2" ry="2" transform="matrix(-1, 0, 0, -1, 0, 0)"/>
    <ellipse style="stroke: rgb(0, 0, 0); fill: rgb(170, 76, 56); stroke-opacity: 0;" cx="-314.704" cy="-288.733" rx="2" ry="2" transform="matrix(-1, 0, 0, -1, 0, 0)"/>
    <animateTransform type="translate" additive="sum" attributeName="transform" values="0 0;-14 -7" begin="0.1s" dur="0.41s" fill="freeze" keyTimes="0; 1"/>
    <animate attributeName="opacity" values="1;0" begin="0.28s" dur="0.53s" fill="freeze" keyTimes="0; 1"/>
  </g>
  <g style="transform-origin: 377.092px 303.941px;" transform="matrix(2.006089, 0, 0, 2.012741, -125.259739, -41.578378)">
    <g transform="matrix(-0.573577, 0.819155, -0.819149, -0.573577, 214.382025, 94.832126)" style="transform-origin: 125.73px 225.007px;">
      <path d="M 325.079 341.133 L 354.549 401.346 L 290.622 401.346 L 325.079 341.133 Z" style="stroke: rgb(0, 0, 0); fill: rgb(254, 226, 105); stroke-opacity: 0;" transform="matrix(0.43837, -0.898795, 0.898793, 0.438373, -355.497233, 347.85551)" bx:shape="triangle 290.622 341.133 63.927 60.213 0.539 0 1@e89c62f3"/>
      <path style="stroke: rgb(0, 0, 0); fill: rgb(254, 226, 105); stroke-opacity: 0;" d="M 132.338 262.688 L 132.5715 262.6421666666667 C 132.80499999999998 262.59633333333335 133.27200000000002 262.50466666666665 135.25283333333334 260.9576666666667 C 137.23366666666666 259.41066666666666 140.72833333333335 256.40833333333336 143.64466666666667 253.33266666666668 C 146.561 250.25699999999998 148.899 247.10800000000003 150.76833333333335 244.3503333333333 C 152.63766666666666 241.59266666666667 154.03833333333333 239.22633333333337 155.78583333333333 235.49183333333335 C 157.53333333333333 231.75733333333335 159.62766666666667 226.65466666666666 160.859 221.67233333333334 C 162.09033333333335 216.68999999999997 162.45866666666666 211.828 162.67983333333333 209.07299999999998 C 162.90099999999998 206.31799999999998 162.975 205.67 162.56933333333333 205.3665 C 162.16366666666667 205.063 161.27833333333334 205.104 160.83566666666667 205.1245 L 160.393 205.145" bx:d="M 132.338 262.688 U 133.739 262.413 U 144.223 253.406 U 151.237 243.959 U 155.439 236.86 U 161.722 221.552 U 162.827 206.966 U 163.049 205.022 U 160.393 205.145 1@f05dcfe2"/>
      <path style="stroke: rgb(0, 0, 0); fill: rgb(254, 132, 27); stroke-opacity: 0; transform-box: fill-box; transform-origin: 50% 50%;" d="M 134.60366666666667 265.367 C 135.43433333333334 266.556 136.87666666666667 268.542 137.688 269.682 C 138.49933333333334 270.82200000000006 138.67966666666666 271.11600000000004 139.30366666666666 270.85066666666665 C 139.92766666666668 270.5853333333334 140.99533333333332 269.7606666666666 142.35416666666666 268.6573333333333 C 143.713 267.55400000000003 145.363 266.172 147.169 264.4766666666667 C 148.975 262.78133333333335 150.937 260.7726666666667 152.70016666666666 258.7663333333333 C 154.46333333333334 256.76 156.02766666666668 254.756 157.62383333333335 252.5135 C 159.22 250.271 160.84799999999998 247.79 162.51116666666667 244.67666666666665 C 164.17433333333335 241.56333333333336 165.87266666666667 237.81766666666667 167.3033333333333 234.025 C 168.734 230.23233333333334 169.89700000000002 226.39266666666666 170.69366666666667 222.32216666666667 C 171.49033333333333 218.25166666666667 171.92066666666665 213.95033333333333 172.16 210.9373333333333 C 172.39933333333332 207.92433333333335 172.4476666666667 206.19966666666664 172.25699999999998 205.37333333333333 C 172.06633333333335 204.547 171.63666666666666 204.619 169.8225 204.69966666666667 C 168.00833333333333 204.78033333333335 164.80966666666666 204.8696666666667 163.17283333333333 204.8936666666667 C 161.53599999999997 204.9176666666667 161.46099999999998 204.87633333333335 161.5575 204.9813333333333 C 161.654 205.08633333333333 161.922 205.33766666666668 161.95383333333334 207.37183333333334 C 161.98566666666667 209.40599999999998 161.78133333333332 213.22299999999998 161.161 217.16983333333334 C 160.54066666666665 221.11666666666667 159.50433333333334 225.19333333333336 157.7815 229.8096666666667 C 156.05866666666665 234.42600000000002 153.64933333333332 239.582 150.95716666666667 244.03883333333332 C 148.26500000000001 248.4956666666667 145.29 252.25333333333333 142.47650000000002 255.1746666666667 C 139.663 258.096 137.011 260.18100000000004 135.34766666666667 261.2286666666667 C 133.68433333333334 262.27633333333335 133.00966666666667 262.2866666666667 132.83900000000003 262.4746666666667 C 132.66833333333332 262.66266666666667 133.00166666666667 263.02833333333336 133.27783333333335 263.4071666666667 C 133.554 263.786 133.773 264.178 134.60366666666667 265.367" transform="matrix(0.999848, 0.017452, -0.017452, 0.999848, 0, 0)" bx:d="M 133.992 264.57 U 138.319 270.528 U 138.86 271.41 U 142.063 268.936 U 147.013 264.79 U 152.899 258.764 U 157.592 252.752 U 162.476 245.309 U 167.571 234.072 U 171.06 222.553 U 172.351 209.649 U 172.496 204.475 U 171.207 204.691 U 161.611 204.959 U 161.386 204.835 U 162.19 205.589 U 161.577 217.04 U 158.468 229.27 U 151.24 244.738 U 142.315 256.011 U 134.359 262.266 U 132.335 262.297 U 133.335 263.394 Z 1@e8c24312"/>
    </g>
    <ellipse style="stroke: rgb(0, 0, 0); fill: rgb(247, 63, 51); stroke-opacity: 0;" cx="327.392" cy="326.222" rx="6" ry="6"/>
    <ellipse style="stroke: rgb(0, 0, 0); fill: rgb(170, 76, 56); stroke-opacity: 0;" cx="-344.756" cy="-320.343" rx="2" ry="2" transform="matrix(-1, 0, 0, -1, 0, 0)"/>
    <animateTransform type="translate" additive="sum" attributeName="transform" values="0 0;-15 11" begin="3.78s" dur="0.51s" fill="freeze" keyTimes="0; 1"/>
    <animate attributeName="opacity" values="1;0" begin="4.04s" dur="0.59s" fill="freeze" keyTimes="0; 1"/>
  </g>
  <g style="transform-origin: 377.092px 303.941px;" transform="matrix(2.006089, 0, 0, 2.012741, -125.259739, -41.578378)">
    <g transform="matrix(1, 0, 0, 1.026687, -24.626776, -25.13674)" style="">
      <path d="M 401.719 321.487 L 441.29 378.126 L 361.509 378.126 L 401.719 321.487 Z" style="stroke: rgb(0, 0, 0); fill: rgb(254, 226, 105); stroke-opacity: 0;" bx:shape="triangle 361.509 321.487 79.781 56.639 0.504 0 1@2f579927"/>
      <path style="stroke: rgb(0, 0, 0); fill: rgb(254, 226, 105); stroke-opacity: 0;" d="M 361.784 377.622 L 362.93350000000004 378.46000000000004 C 364.083 379.298 366.382 380.974 369.3963333333333 382.6061666666667 C 372.41066666666666 384.2383333333333 376.14033333333333 385.82666666666665 380.53683333333333 387.2001666666667 C 384.93333333333334 388.57366666666667 389.99666666666667 389.7323333333334 394.69083333333333 390.2538333333334 C 399.385 390.7753333333333 403.71000000000004 390.6596666666667 407.7936666666667 390.27216666666664 C 411.87733333333335 389.88466666666665 415.7196666666667 389.2253333333333 419.5898333333333 388.20233333333334 C 423.46000000000004 387.1793333333333 427.358 385.79266666666666 430.8811666666666 384.1756666666667 C 434.40433333333334 382.5586666666666 437.55266666666665 380.71133333333336 439.251 379.55916666666667 C 440.9493333333333 378.407 441.1976666666667 377.95 441.32183333333336 377.72150000000005 L 441.446 377.493" bx:d="M 361.784 377.622 U 368.681 382.65 U 379.87 387.415 U 395.06 390.891 U 408.035 390.544 U 419.562 388.566 U 431.256 384.406 U 440.701 378.864 U 441.446 377.493 1@ddc851c2"/>
      <path style="stroke: rgb(0, 0, 0); fill: rgb(254, 132, 27); stroke-opacity: 0;" d="M 360.7558333333333 379.06183333333337 C 359.78933333333333 380.43266666666665 357.8906666666667 383.11833333333334 356.9328333333333 384.5296666666666 C 355.97499999999997 385.941 355.958 386.078 356.4113333333333 386.4371666666666 C 356.86466666666666 386.7963333333333 357.78833333333336 387.3776666666667 359.8618333333333 388.5536666666667 C 361.93533333333335 389.7296666666667 365.1586666666667 391.50033333333334 368.3453333333334 392.99333333333334 C 371.532 394.48633333333333 374.682 395.70166666666665 378.1546666666666 396.74333333333334 C 381.62733333333335 397.785 385.42266666666666 398.653 389.00700000000006 399.2483333333333 C 392.59133333333335 399.84366666666665 395.9646666666667 400.16633333333334 399.63983333333334 400.2471666666666 C 403.31500000000005 400.328 407.292 400.167 411.23566666666665 399.70433333333335 C 415.1793333333333 399.2416666666666 419.0896666666667 398.4773333333333 423.147 397.31600000000003 C 427.20433333333335 396.1546666666666 431.4086666666667 394.59633333333335 435.46600000000007 392.68533333333335 C 439.5233333333333 390.77433333333335 443.4336666666666 388.51066666666674 445.33 387.1876666666667 C 447.22633333333334 385.86466666666666 447.1086666666667 385.4823333333334 446.07199999999995 383.9521666666667 C 445.0353333333333 382.422 443.0796666666667 379.74399999999997 442.1948333333333 378.48766666666666 C 441.31 377.23133333333334 441.49600000000004 377.3966666666667 440.3623333333333 378.2801666666667 C 439.2286666666667 379.16366666666664 436.7753333333333 380.76533333333333 433.76450000000006 382.2275 C 430.7536666666667 383.68966666666665 427.18533333333335 385.01233333333334 423.3766666666667 386.17366666666663 C 419.56800000000004 387.335 415.519 388.335 410.4976666666667 388.8081666666667 C 405.47633333333334 389.28133333333335 399.4826666666666 389.22766666666666 394.1846666666667 388.74600000000004 C 388.8866666666666 388.2643333333333 384.28433333333334 387.3546666666666 379.48350000000005 385.7488333333333 C 374.68266666666665 384.14300000000003 369.6833333333334 381.84099999999995 366.6921666666667 380.36650000000003 C 363.701 378.892 362.718 378.24500000000006 362.23583333333335 377.91833333333335 C 361.7536666666667 377.5916666666667 361.77233333333334 377.5853333333334 361.7645 377.61016666666666 C 361.75666666666666 377.635 361.7223333333333 377.69100000000003 360.7558333333333 379.06183333333337" bx:d="M 361.688 377.747 U 355.992 385.804 U 355.941 386.215 U 358.712 387.959 U 368.382 393.271 U 377.832 396.917 U 389.218 399.521 U 399.338 400.489 U 411.269 400.006 U 423 397.713 U 435.613 393.038 U 447.344 386.247 U 446.991 385.1 U 441.124 377.066 U 441.682 377.562 U 434.322 382.367 U 423.617 386.335 U 411.47 389.335 U 393.489 389.174 U 379.682 386.445 U 364.684 379.539 U 361.735 377.598 U 361.791 377.579 Z 1@91d1a7b2"/>
    </g>
    <ellipse style="stroke: rgb(0, 0, 0); fill: rgb(247, 63, 51); stroke-opacity: 0;" cx="375.697" cy="356.628" rx="6" ry="6"/>
    <ellipse style="stroke: rgb(0, 0, 0); fill: rgb(170, 76, 56); stroke-opacity: 0;" cx="-369.91" cy="-336.593" rx="2" ry="2" transform="matrix(-1, 0, 0, -1, 0, 0)"/>
    <animateTransform type="translate" additive="sum" attributeName="transform" values="0 0;0 18" begin="3.04s" dur="0.45s" fill="freeze" keyTimes="0; 1"/>
    <animate attributeName="opacity" values="1;0" begin="3.28s" dur="0.5s" fill="freeze" keyTimes="0; 1"/>
  </g>
  <g style="transform-origin: 377.092px 303.941px;" transform="matrix(2.006089, 0, 0, 2.012741, -125.259739, -41.578378)">
    <g transform="matrix(0.573577, 0.819156, 0.819148, -0.573577, 288.177346, 95.209758)" style="transform-origin: 125.73px 225.007px;">
      <path d="M 325.079 341.133 L 354.549 401.346 L 290.622 401.346 L 325.079 341.133 Z" style="stroke: rgb(0, 0, 0); fill: rgb(254, 226, 105); stroke-opacity: 0;" transform="matrix(0.43837, -0.898795, 0.898793, 0.438373, -355.497233, 347.85551)" bx:shape="triangle 290.622 341.133 63.927 60.213 0.539 0 1@e89c62f3"/>
      <path style="stroke: rgb(0, 0, 0); fill: rgb(254, 226, 105); stroke-opacity: 0;" d="M 132.338 262.688 L 132.5715 262.6421666666667 C 132.80499999999998 262.59633333333335 133.27200000000002 262.50466666666665 135.25283333333334 260.9576666666667 C 137.23366666666666 259.41066666666666 140.72833333333335 256.40833333333336 143.64466666666667 253.33266666666668 C 146.561 250.25699999999998 148.899 247.10800000000003 150.76833333333335 244.3503333333333 C 152.63766666666666 241.59266666666667 154.03833333333333 239.22633333333337 155.78583333333333 235.49183333333335 C 157.53333333333333 231.75733333333335 159.62766666666667 226.65466666666666 160.859 221.67233333333334 C 162.09033333333335 216.68999999999997 162.45866666666666 211.828 162.67983333333333 209.07299999999998 C 162.90099999999998 206.31799999999998 162.975 205.67 162.56933333333333 205.3665 C 162.16366666666667 205.063 161.27833333333334 205.104 160.83566666666667 205.1245 L 160.393 205.145" bx:d="M 132.338 262.688 U 133.739 262.413 U 144.223 253.406 U 151.237 243.959 U 155.439 236.86 U 161.722 221.552 U 162.827 206.966 U 163.049 205.022 U 160.393 205.145 1@f05dcfe2"/>
      <path style="stroke: rgb(0, 0, 0); fill: rgb(254, 132, 27); stroke-opacity: 0; transform-box: fill-box; transform-origin: 50% 50%;" d="M 134.60366666666667 265.367 C 135.43433333333334 266.556 136.87666666666667 268.542 137.688 269.682 C 138.49933333333334 270.82200000000006 138.67966666666666 271.11600000000004 139.30366666666666 270.85066666666665 C 139.92766666666668 270.5853333333334 140.99533333333332 269.7606666666666 142.35416666666666 268.6573333333333 C 143.713 267.55400000000003 145.363 266.172 147.169 264.4766666666667 C 148.975 262.78133333333335 150.937 260.7726666666667 152.70016666666666 258.7663333333333 C 154.46333333333334 256.76 156.02766666666668 254.756 157.62383333333335 252.5135 C 159.22 250.271 160.84799999999998 247.79 162.51116666666667 244.67666666666665 C 164.17433333333335 241.56333333333336 165.87266666666667 237.81766666666667 167.3033333333333 234.025 C 168.734 230.23233333333334 169.89700000000002 226.39266666666666 170.69366666666667 222.32216666666667 C 171.49033333333333 218.25166666666667 171.92066666666665 213.95033333333333 172.16 210.9373333333333 C 172.39933333333332 207.92433333333335 172.4476666666667 206.19966666666664 172.25699999999998 205.37333333333333 C 172.06633333333335 204.547 171.63666666666666 204.619 169.8225 204.69966666666667 C 168.00833333333333 204.78033333333335 164.80966666666666 204.8696666666667 163.17283333333333 204.8936666666667 C 161.53599999999997 204.9176666666667 161.46099999999998 204.87633333333335 161.5575 204.9813333333333 C 161.654 205.08633333333333 161.922 205.33766666666668 161.95383333333334 207.37183333333334 C 161.98566666666667 209.40599999999998 161.78133333333332 213.22299999999998 161.161 217.16983333333334 C 160.54066666666665 221.11666666666667 159.50433333333334 225.19333333333336 157.7815 229.8096666666667 C 156.05866666666665 234.42600000000002 153.64933333333332 239.582 150.95716666666667 244.03883333333332 C 148.26500000000001 248.4956666666667 145.29 252.25333333333333 142.47650000000002 255.1746666666667 C 139.663 258.096 137.011 260.18100000000004 135.34766666666667 261.2286666666667 C 133.68433333333334 262.27633333333335 133.00966666666667 262.2866666666667 132.83900000000003 262.4746666666667 C 132.66833333333332 262.66266666666667 133.00166666666667 263.02833333333336 133.27783333333335 263.4071666666667 C 133.554 263.786 133.773 264.178 134.60366666666667 265.367" transform="matrix(0.999848, 0.017452, -0.017452, 0.999848, 0, 0)" bx:d="M 133.992 264.57 U 138.319 270.528 U 138.86 271.41 U 142.063 268.936 U 147.013 264.79 U 152.899 258.764 U 157.592 252.752 U 162.476 245.309 U 167.571 234.072 U 171.06 222.553 U 172.351 209.649 U 172.496 204.475 U 171.207 204.691 U 161.611 204.959 U 161.386 204.835 U 162.19 205.589 U 161.577 217.04 U 158.468 229.27 U 151.24 244.738 U 142.315 256.011 U 134.359 262.266 U 132.335 262.297 U 133.335 263.394 Z 1@e8c24312"/>
    </g>
    <ellipse style="stroke: rgb(0, 0, 0); fill: rgb(247, 63, 51); stroke-opacity: 0;" cx="426.229" cy="328.134" rx="6" ry="6"/>
    <ellipse style="stroke: rgb(0, 0, 0); fill: rgb(170, 76, 56); stroke-opacity: 0;" cx="-408.42" cy="-319.675" rx="2" ry="2" transform="matrix(-1, 0, 0, -1, 0, 0)"/>
    <ellipse style="stroke: rgb(0, 0, 0); fill: rgb(170, 76, 56); stroke-opacity: 0;" cx="-423.112" cy="-347.278" rx="2" ry="2" transform="matrix(-1, 0, 0, -1, 0, 0)"/>
    <animateTransform type="translate" additive="sum" attributeName="transform" values="0 0;17 11" begin="2.33s" dur="0.49s" fill="freeze" keyTimes="0; 1"/>
    <animate attributeName="opacity" values="1;0" begin="2.57s" dur="0.47s" fill="freeze" keyTimes="0; 1"/>
  </g>
</svg>