<?xml version="1.0" standalone="no"?>
<svg xmlns:xlink="http://www.w3.org/1999/xlink" id="wave" style="transform:rotate(0deg); transition: 0.3s" viewBox="0 0 1440 490" version="1.1" xmlns="http://www.w3.org/2000/svg"><defs><linearGradient id="sw-gradient-0" x1="0" x2="0" y1="1" y2="0"><stop stop-color="rgba(5.832, 23.911, 157.418, 1)" offset="0%"/><stop stop-color="rgba(3.859, 3.617, 18.534, 1)" offset="100%"/></linearGradient></defs><path style="transform:translate(0, 0px); opacity:1" fill="url(#sw-gradient-0)" d="M0,0L120,0C240,0,480,0,720,24.5C960,49,1200,98,1440,155.2C1680,212,1920,278,2160,253.2C2400,229,2640,114,2880,81.7C3120,49,3360,98,3600,130.7C3840,163,4080,180,4320,155.2C4560,131,4800,65,5040,81.7C5280,98,5520,196,5760,204.2C6000,212,6240,131,6480,155.2C6720,180,6960,310,7200,318.5C7440,327,7680,212,7920,171.5C8160,131,8400,163,8640,147C8880,131,9120,65,9360,81.7C9600,98,9840,196,10080,196C10320,196,10560,98,10800,122.5C11040,147,11280,294,11520,294C11760,294,12000,147,12240,138.8C12480,131,12720,261,12960,302.2C13200,343,13440,294,13680,228.7C13920,163,14160,82,14400,114.3C14640,147,14880,294,15120,302.2C15360,310,15600,180,15840,171.5C16080,163,16320,278,16560,285.8C16800,294,17040,196,17160,147L17280,98L17280,490L17160,490C17040,490,16800,490,16560,490C16320,490,16080,490,15840,490C15600,490,15360,490,15120,490C14880,490,14640,490,14400,490C14160,490,13920,490,13680,490C13440,490,13200,490,12960,490C12720,490,12480,490,12240,490C12000,490,11760,490,11520,490C11280,490,11040,490,10800,490C10560,490,10320,490,10080,490C9840,490,9600,490,9360,490C9120,490,8880,490,8640,490C8400,490,8160,490,7920,490C7680,490,7440,490,7200,490C6960,490,6720,490,6480,490C6240,490,6000,490,5760,490C5520,490,5280,490,5040,490C4800,490,4560,490,4320,490C4080,490,3840,490,3600,490C3360,490,3120,490,2880,490C2640,490,2400,490,2160,490C1920,490,1680,490,1440,490C1200,490,960,490,720,490C480,490,240,490,120,490L0,490Z"/></svg>